<svg xmlns="http://www.w3.org/2000/svg" viewBox="0 0 1600 1000" width="1600" height="1000" role="img" aria-label="Interface preview">
  <rect x="0" y="0" width="1600" height="1000" rx="0" fill="#372c25"/>
  <defs>
      <filter id="sh1" x="-20%" y="-20%" width="140%" height="150%">
        <feDropShadow dx="0" dy="18" stdDeviation="26" flood-color="rgba(28,22,21,0.16)"/>
      </filter>
    </defs>
    <g filter="url(#sh1)">
      <rect x="58" y="58" width="1484" height="884" rx="16" fill="#120e0d"/>
    </g>
    <rect x="58" y="58" width="1484" height="54" rx="16" fill="#201c1b"/>
    <rect x="58" y="96" width="1484" height="16" rx="0" fill="#201c1b"/>
    <line x1="58" y1="112" x2="1542" y2="112" stroke="rgba(251,248,244,0.12)" stroke-width="1"/>
    <circle cx="88" cy="85" r="6.5" fill="rgba(251,248,244,0.18)"/>
    <circle cx="110" cy="85" r="6.5" fill="rgba(251,248,244,0.14)"/>
    <circle cx="132" cy="85" r="6.5" fill="rgba(251,248,244,0.1)"/>
    <rect x="630" y="72" width="340" height="26" rx="13" fill="rgba(251,248,244,0.06)"/>
    <text x="800" y="90" font-family="Jost, Inter, Helvetica, Arial, sans-serif" font-size="14" font-weight="400" fill="rgba(251,248,244,0.45)" text-anchor="middle" letter-spacing="1.4">nkiru atelier</text>
    <rect x="58" y="58" width="1484" height="884" rx="16" fill="none" stroke="rgba(251,248,244,0.12)"/><rect x="58" y="112" width="1484" height="830" rx="0" fill="#120e0d"/><text x="114" y="194" font-family="'Cormorant Garamond', Georgia, 'Times New Roman', serif" font-size="44" font-weight="300" fill="#fbf8f4" text-anchor="start" letter-spacing="0">The Collection</text><text x="114" y="228" font-family="Jost, Inter, Helvetica, Arial, sans-serif" font-size="11" font-weight="400" fill="rgba(196,161,119,0.85)" text-anchor="start" letter-spacing="4">HARMATTAN · SIXTEEN LOOKS</text><defs>
    <linearGradient id="g2" x1="0" y1="0" x2="0.6" y2="1">
      <stop offset="0" stop-color="#8f7557"/>
      <stop offset="1" stop-color="#62503d"/>
    </linearGradient>
    <clipPath id="c3"><rect x="114" y="268" width="328" height="288" rx="3"/></clipPath>
  </defs>
  <g clip-path="url(#c3)">
    <rect x="114" y="268" width="328" height="288" rx="3" fill="url(#g2)"/>
    <ellipse cx="367.2" cy="394.3" rx="137.9" ry="106.8" fill="rgba(196,161,119,0.34)"/><ellipse cx="265.9" cy="362.0" rx="141.5" ry="118.0" fill="rgba(255,255,255,0.07)"/><ellipse cx="273.0" cy="485.0" rx="98.3" ry="83.5" fill="rgba(196,161,119,0.34)"/>
    <rect x="114" y="446.6" width="328" height="109.4" rx="0" fill="rgba(18,14,13,0.3)"/>
  </g><text x="114" y="582" font-family="Jost, Inter, Helvetica, Arial, sans-serif" font-size="11" font-weight="400" fill="rgba(251,248,244,0.5)" text-anchor="start" letter-spacing="3">LOOK 01</text><defs>
    <linearGradient id="g4" x1="0" y1="0" x2="0.6" y2="1">
      <stop offset="0" stop-color="#8f7557"/>
      <stop offset="1" stop-color="#62503d"/>
    </linearGradient>
    <clipPath id="c5"><rect x="462" y="268" width="328" height="288" rx="3"/></clipPath>
  </defs>
  <g clip-path="url(#c5)">
    <rect x="462" y="268" width="328" height="288" rx="3" fill="url(#g4)"/>
    <ellipse cx="734.1" cy="327.4" rx="158.5" ry="151.3" fill="rgba(196,161,119,0.34)"/><ellipse cx="572.4" cy="340.7" rx="83.5" ry="89.7" fill="rgba(255,255,255,0.07)"/><ellipse cx="720.1" cy="403.0" rx="126.3" ry="115.6" fill="rgba(196,161,119,0.34)"/>
    <rect x="462" y="446.6" width="328" height="109.4" rx="0" fill="rgba(18,14,13,0.3)"/>
  </g><text x="462" y="582" font-family="Jost, Inter, Helvetica, Arial, sans-serif" font-size="11" font-weight="400" fill="rgba(251,248,244,0.5)" text-anchor="start" letter-spacing="3">LOOK 02</text><defs>
    <linearGradient id="g6" x1="0" y1="0" x2="0.6" y2="1">
      <stop offset="0" stop-color="#8f7557"/>
      <stop offset="1" stop-color="#62503d"/>
    </linearGradient>
    <clipPath id="c7"><rect x="810" y="268" width="328" height="288" rx="3"/></clipPath>
  </defs>
  <g clip-path="url(#c7)">
    <rect x="810" y="268" width="328" height="288" rx="3" fill="url(#g6)"/>
    <ellipse cx="945.6" cy="483.0" rx="93.4" ry="65.0" fill="rgba(196,161,119,0.34)"/><ellipse cx="943.8" cy="384.9" rx="118.1" ry="94.8" fill="rgba(255,255,255,0.07)"/><ellipse cx="877.5" cy="381.5" rx="110.6" ry="92.9" fill="rgba(196,161,119,0.34)"/>
    <rect x="810" y="446.6" width="328" height="109.4" rx="0" fill="rgba(18,14,13,0.3)"/>
  </g><text x="810" y="582" font-family="Jost, Inter, Helvetica, Arial, sans-serif" font-size="11" font-weight="400" fill="rgba(251,248,244,0.5)" text-anchor="start" letter-spacing="3">LOOK 03</text><defs>
    <linearGradient id="g8" x1="0" y1="0" x2="0.6" y2="1">
      <stop offset="0" stop-color="#8f7557"/>
      <stop offset="1" stop-color="#62503d"/>
    </linearGradient>
    <clipPath id="c9"><rect x="1158" y="268" width="328" height="288" rx="3"/></clipPath>
  </defs>
  <g clip-path="url(#c9)">
    <rect x="1158" y="268" width="328" height="288" rx="3" fill="url(#g8)"/>
    <ellipse cx="1271.3" cy="436.1" rx="162.3" ry="174.6" fill="rgba(196,161,119,0.34)"/><ellipse cx="1310.2" cy="396.1" rx="125.8" ry="116.4" fill="rgba(255,255,255,0.07)"/><ellipse cx="1283.8" cy="331.0" rx="154.0" ry="142.4" fill="rgba(196,161,119,0.34)"/>
    <rect x="1158" y="446.6" width="328" height="109.4" rx="0" fill="rgba(18,14,13,0.3)"/>
  </g><text x="1158" y="582" font-family="Jost, Inter, Helvetica, Arial, sans-serif" font-size="11" font-weight="400" fill="rgba(251,248,244,0.5)" text-anchor="start" letter-spacing="3">LOOK 04</text><defs>
    <linearGradient id="g10" x1="0" y1="0" x2="0.6" y2="1">
      <stop offset="0" stop-color="#8f7557"/>
      <stop offset="1" stop-color="#62503d"/>
    </linearGradient>
    <clipPath id="c11"><rect x="114" y="604" width="328" height="288" rx="3"/></clipPath>
  </defs>
  <g clip-path="url(#c11)">
    <rect x="114" y="604" width="328" height="288" rx="3" fill="url(#g10)"/>
    <ellipse cx="307.2" cy="837.7" rx="128.2" ry="125.2" fill="rgba(196,161,119,0.34)"/><ellipse cx="209.3" cy="855.0" rx="78.7" ry="84.3" fill="rgba(255,255,255,0.07)"/><ellipse cx="233.3" cy="738.9" rx="129.1" ry="80.2" fill="rgba(196,161,119,0.34)"/>
    <rect x="114" y="782.6" width="328" height="109.4" rx="0" fill="rgba(18,14,13,0.3)"/>
  </g><text x="114" y="918" font-family="Jost, Inter, Helvetica, Arial, sans-serif" font-size="11" font-weight="400" fill="rgba(251,248,244,0.5)" text-anchor="start" letter-spacing="3">LOOK 05</text><defs>
    <linearGradient id="g12" x1="0" y1="0" x2="0.6" y2="1">
      <stop offset="0" stop-color="#8f7557"/>
      <stop offset="1" stop-color="#62503d"/>
    </linearGradient>
    <clipPath id="c13"><rect x="462" y="604" width="328" height="288" rx="3"/></clipPath>
  </defs>
  <g clip-path="url(#c13)">
    <rect x="462" y="604" width="328" height="288" rx="3" fill="url(#g12)"/>
    <ellipse cx="712.8" cy="712.7" rx="160.4" ry="164.6" fill="rgba(196,161,119,0.34)"/><ellipse cx="612.4" cy="672.3" rx="89.4" ry="89.1" fill="rgba(255,255,255,0.07)"/><ellipse cx="659.8" cy="678.6" rx="122.9" ry="105.6" fill="rgba(196,161,119,0.34)"/>
    <rect x="462" y="782.6" width="328" height="109.4" rx="0" fill="rgba(18,14,13,0.3)"/>
  </g><text x="462" y="918" font-family="Jost, Inter, Helvetica, Arial, sans-serif" font-size="11" font-weight="400" fill="rgba(251,248,244,0.5)" text-anchor="start" letter-spacing="3">LOOK 06</text><defs>
    <linearGradient id="g14" x1="0" y1="0" x2="0.6" y2="1">
      <stop offset="0" stop-color="#8f7557"/>
      <stop offset="1" stop-color="#62503d"/>
    </linearGradient>
    <clipPath id="c15"><rect x="810" y="604" width="328" height="288" rx="3"/></clipPath>
  </defs>
  <g clip-path="url(#c15)">
    <rect x="810" y="604" width="328" height="288" rx="3" fill="url(#g14)"/>
    <ellipse cx="965.8" cy="834.7" rx="152.9" ry="161.8" fill="rgba(196,161,119,0.34)"/><ellipse cx="1087.2" cy="673.5" rx="135.2" ry="120.9" fill="rgba(255,255,255,0.07)"/><ellipse cx="927.4" cy="804.9" rx="149.1" ry="146.2" fill="rgba(196,161,119,0.34)"/>
    <rect x="810" y="782.6" width="328" height="109.4" rx="0" fill="rgba(18,14,13,0.3)"/>
  </g><text x="810" y="918" font-family="Jost, Inter, Helvetica, Arial, sans-serif" font-size="11" font-weight="400" fill="rgba(251,248,244,0.5)" text-anchor="start" letter-spacing="3">LOOK 07</text><defs>
    <linearGradient id="g16" x1="0" y1="0" x2="0.6" y2="1">
      <stop offset="0" stop-color="#8f7557"/>
      <stop offset="1" stop-color="#62503d"/>
    </linearGradient>
    <clipPath id="c17"><rect x="1158" y="604" width="328" height="288" rx="3"/></clipPath>
  </defs>
  <g clip-path="url(#c17)">
    <rect x="1158" y="604" width="328" height="288" rx="3" fill="url(#g16)"/>
    <ellipse cx="1245.3" cy="814.7" rx="143.8" ry="132.8" fill="rgba(196,161,119,0.34)"/><ellipse cx="1228.1" cy="853.4" rx="160.6" ry="104.3" fill="rgba(255,255,255,0.07)"/><ellipse cx="1343.9" cy="766.3" rx="103.2" ry="79.8" fill="rgba(196,161,119,0.34)"/>
    <rect x="1158" y="782.6" width="328" height="109.4" rx="0" fill="rgba(18,14,13,0.3)"/>
  </g><text x="1158" y="918" font-family="Jost, Inter, Helvetica, Arial, sans-serif" font-size="11" font-weight="400" fill="rgba(251,248,244,0.5)" text-anchor="start" letter-spacing="3">LOOK 08</text>
</svg>