<svg xmlns="http://www.w3.org/2000/svg" viewBox="0 0 1600 1000" width="1600" height="1000" role="img" aria-label="Interface preview">
  <rect x="0" y="0" width="1600" height="1000" rx="0" fill="#e7e7eb"/>
  <rect x="0" y="0" width="1600" height="1000" rx="0" fill="#e7e7eb"/><circle cx="256" cy="200" r="250" fill="rgba(124,143,185,0.12)"/><circle cx="1376" cy="820" r="300" fill="rgba(124,143,185,0.1)"/><defs>
      <filter id="ph1" x="-30%" y="-20%" width="160%" height="150%">
        <feDropShadow dx="0" dy="16" stdDeviation="22" flood-color="rgba(28,22,21,0.2)"/>
      </filter>
    </defs>
    <g filter="url(#ph1)">
      <rect x="424" y="78" width="328" height="787.2" rx="37.72" fill="#1c1615"/>
    </g>
    <rect x="431" y="85" width="314" height="773.2" rx="32.72" fill="#ffffff"/>
    <rect x="542.1" y="94" width="91.8" height="10" rx="5" fill="rgba(28,22,21,0.16)"/>
    <rect x="424" y="78" width="328" height="787.1999999999999" rx="37.72" fill="none" stroke="rgba(28,22,21,0.14)"/><defs>
      <filter id="ph2" x="-30%" y="-20%" width="160%" height="150%">
        <feDropShadow dx="0" dy="16" stdDeviation="22" flood-color="rgba(28,22,21,0.2)"/>
      </filter>
    </defs>
    <g filter="url(#ph2)">
      <rect x="848" y="78" width="328" height="787.2" rx="37.72" fill="#1c1615"/>
    </g>
    <rect x="855" y="85" width="314" height="773.2" rx="32.72" fill="#ffffff"/>
    <rect x="966.1" y="94" width="91.8" height="10" rx="5" fill="rgba(28,22,21,0.16)"/>
    <rect x="848" y="78" width="328" height="787.1999999999999" rx="37.72" fill="none" stroke="rgba(28,22,21,0.14)"/><rect x="431" y="112" width="314" height="739.2" rx="0" fill="#ffffff"/><text x="453" y="154" font-family="Jost, Inter, Helvetica, Arial, sans-serif" font-size="11" font-weight="400" fill="rgba(28,22,21,0.42)" text-anchor="start" letter-spacing="3">THIS WEEK</text><text x="453" y="202" font-family="'Cormorant Garamond', Georgia, 'Times New Roman', serif" font-size="34" font-weight="300" fill="#1c1615" text-anchor="start" letter-spacing="0">Progress</text><rect x="451" y="228" width="274" height="150" rx="14" fill="#eeeeee"/><defs><linearGradient id="lc3" x1="0" y1="0" x2="0" y2="1">
         <stop offset="0" stop-color="rgba(124,143,185,0.28)"/>
         <stop offset="1" stop-color="rgba(124,143,185,0)"/>
       </linearGradient></defs>
       <path d="M 469.0 319.8 C 473.4 320.5, 486.6 325.3, 495.4 324.4 C 504.3 323.6, 513.1 314.5, 521.9 314.7 C 530.7 314.8, 539.5 322.0, 548.3 325.5 C 557.1 328.9, 566.0 334.1, 574.8 335.4 C 583.6 336.7, 592.4 333.4, 601.2 333.4 C 610.0 333.4, 618.9 335.6, 627.7 335.3 C 636.5 335.1, 645.3 331.7, 654.1 331.8 C 662.9 331.9, 671.7 337.3, 680.6 336.0 C 689.4 334.7, 702.6 325.9, 707.0 323.8 L 707.0 356.0 L 469.0 356.0 Z" fill="url(#lc3)"/><path d="M 469.0 319.8 C 473.4 320.5, 486.6 325.3, 495.4 324.4 C 504.3 323.6, 513.1 314.5, 521.9 314.7 C 530.7 314.8, 539.5 322.0, 548.3 325.5 C 557.1 328.9, 566.0 334.1, 574.8 335.4 C 583.6 336.7, 592.4 333.4, 601.2 333.4 C 610.0 333.4, 618.9 335.6, 627.7 335.3 C 636.5 335.1, 645.3 331.7, 654.1 331.8 C 662.9 331.9, 671.7 337.3, 680.6 336.0 C 689.4 334.7, 702.6 325.9, 707.0 323.8" fill="none" stroke="#7c8fb9" stroke-width="3" stroke-linecap="round" stroke-linejoin="round"/>
    <circle cx="707" cy="323.8" r="7" fill="#ffffff"/><circle cx="707" cy="323.8" r="4.5" fill="#7c8fb9"/><rect x="451" y="402" width="274" height="62" rx="12" fill="rgba(28,22,21,0.035)"/><circle cx="483" cy="433" r="17" fill="rgba(124,143,185,0.2)"/><rect x="513" y="420" width="125.6" height="9" rx="5" fill="rgba(28,22,21,0.34)"/><rect x="513" y="438" width="81.6" height="8" rx="4" fill="rgba(28,22,21,0.13)"/><text x="711" y="440" font-family="Jost, Inter, Helvetica, Arial, sans-serif" font-size="13" font-weight="400" fill="rgba(28,22,21,0.4)" text-anchor="end" letter-spacing="0">40m</text><rect x="451" y="478" width="274" height="62" rx="12" fill="rgba(28,22,21,0.035)"/><circle cx="483" cy="509" r="17" fill="rgba(124,143,185,0.2)"/><rect x="513" y="496" width="125.6" height="9" rx="5" fill="rgba(28,22,21,0.34)"/><rect x="513" y="514" width="81.6" height="8" rx="4" fill="rgba(28,22,21,0.13)"/><text x="711" y="516" font-family="Jost, Inter, Helvetica, Arial, sans-serif" font-size="13" font-weight="400" fill="rgba(28,22,21,0.4)" text-anchor="end" letter-spacing="0">46m</text><rect x="451" y="554" width="274" height="62" rx="12" fill="rgba(28,22,21,0.035)"/><circle cx="483" cy="585" r="17" fill="rgba(124,143,185,0.2)"/><rect x="513" y="572" width="125.6" height="9" rx="5" fill="rgba(28,22,21,0.34)"/><rect x="513" y="590" width="81.6" height="8" rx="4" fill="rgba(28,22,21,0.13)"/><text x="711" y="592" font-family="Jost, Inter, Helvetica, Arial, sans-serif" font-size="13" font-weight="400" fill="rgba(28,22,21,0.4)" text-anchor="end" letter-spacing="0">52m</text><rect x="451" y="630" width="274" height="62" rx="12" fill="rgba(28,22,21,0.035)"/><circle cx="483" cy="661" r="17" fill="rgba(124,143,185,0.2)"/><rect x="513" y="648" width="125.6" height="9" rx="5" fill="rgba(28,22,21,0.34)"/><rect x="513" y="666" width="81.6" height="8" rx="4" fill="rgba(28,22,21,0.13)"/><text x="711" y="668" font-family="Jost, Inter, Helvetica, Arial, sans-serif" font-size="13" font-weight="400" fill="rgba(28,22,21,0.4)" text-anchor="end" letter-spacing="0">58m</text><rect x="855" y="112" width="314" height="739.2" rx="0" fill="#373843"/><text x="877" y="152" font-family="Jost, Inter, Helvetica, Arial, sans-serif" font-size="11" font-weight="400" fill="rgba(251,248,244,0.55)" text-anchor="start" letter-spacing="3">SET 3 OF 5</text><text x="877" y="208" font-family="'Cormorant Garamond', Georgia, 'Times New Roman', serif" font-size="36" font-weight="300" fill="#fbf8f4" text-anchor="start" letter-spacing="0">Back Squat</text><text x="877" y="244" font-family="Jost, Inter, Helvetica, Arial, sans-serif" font-size="15" font-weight="400" fill="rgba(251,248,244,0.6)" text-anchor="start" letter-spacing="0">80 kg × 8 reps</text><circle cx="1012" cy="380" r="92" fill="none" stroke="rgba(251,248,244,0.14)" stroke-width="12"/><circle cx="1012" cy="380" r="92" fill="none" stroke="#7c8fb9" stroke-width="12" stroke-linecap="round" stroke-dasharray="358.4 219.7" transform="rotate(-90 1012 380)"/><text x="1012" y="392" font-family="Jost, Inter, Helvetica, Arial, sans-serif" font-size="40" font-weight="400" fill="#fbf8f4" text-anchor="middle" letter-spacing="0">01:24</text><text x="1012" y="420" font-family="Jost, Inter, Helvetica, Arial, sans-serif" font-size="11" font-weight="400" fill="rgba(251,248,244,0.45)" text-anchor="middle" letter-spacing="3">REST</text><rect x="875" y="703.2" width="274" height="68" rx="34" fill="#7c8fb9"/><text x="1012" y="746.2" font-family="Jost, Inter, Helvetica, Arial, sans-serif" font-size="17" font-weight="500" fill="#101820" text-anchor="middle" letter-spacing="0">Complete set</text><rect x="875" y="785.2" width="131" height="52" rx="26" fill="rgba(251,248,244,0.12)"/><rect x="1018" y="785.2" width="131" height="52" rx="26" fill="rgba(251,248,244,0.12)"/>
</svg>